<svg xmlns="http://www.w3.org/2000/svg" width="144" height="144" viewBox="0 0 144 144">
  <g stroke="#FFFFFF" stroke-width="6" stroke-linecap="round">
    <line x1="56" y1="22" x2="56" y2="40"/>
    <line x1="72" y1="22" x2="72" y2="40"/>
    <line x1="88" y1="22" x2="88" y2="40"/>
    <line x1="56" y1="104" x2="56" y2="122"/>
    <line x1="72" y1="104" x2="72" y2="122"/>
    <line x1="88" y1="104" x2="88" y2="122"/>
    <line x1="22" y1="56" x2="40" y2="56"/>
    <line x1="22" y1="72" x2="40" y2="72"/>
    <line x1="22" y1="88" x2="40" y2="88"/>
    <line x1="104" y1="56" x2="122" y2="56"/>
    <line x1="104" y1="72" x2="122" y2="72"/>
    <line x1="104" y1="88" x2="122" y2="88"/>
  </g>
  <rect x="40" y="40" width="64" height="64" rx="11" fill="#1C1C1E" stroke="#FFFFFF" stroke-width="6"/>
  <rect x="53" y="64" width="10" height="18" rx="2" fill="#30D158"/>
  <rect x="67" y="58" width="10" height="24" rx="2" fill="#FFD60A"/>
  <rect x="81" y="52" width="10" height="30" rx="2" fill="#FF453A"/>
</svg>
